<svg width="116" height="30" viewBox="0 0 116 30" fill="none" xmlns="http://www.w3.org/2000/svg">
<path d="M0 0V23.1713H3.97031V0H0Z" fill="#213F7D"/>
<path d="M23.5114 16.442C24.1349 9.71271 20.7552 6.33149 15.3411 6.33149C10.0911 6.33149 6.74425 9.9116 6.74425 14.884C6.74425 20.1215 10.0583 23.6022 15.6364 23.6022C18.0974 23.6022 20.8864 22.7403 22.5927 20.9503L20.0333 18.3978C19.1146 19.3591 17.1786 19.9227 15.7021 19.9227C12.8802 19.9227 11.1411 18.4641 10.8786 16.442H23.5114ZM10.9443 13.0939C11.5349 10.9724 13.3068 9.9116 15.4724 9.9116C17.7693 9.9116 19.4099 10.9724 19.6724 13.0939H10.9443Z" fill="#213F7D"/>
<path d="M42.5101 23.1713V14.5856C42.5101 9.44751 39.4586 6.56354 35.6523 6.56354C33.6179 6.56354 31.9773 7.39227 30.3367 9.01657L30.0742 6.79558H26.4976V23.1713H30.4679V14.8177C30.4679 12.3315 32.1414 10.2431 34.6023 10.2431C37.1617 10.2431 38.507 12.1326 38.507 14.6188V23.1713H42.5101Z" fill="#213F7D"/>
<path d="M53.7925 10.2099C56.3191 10.2099 58.4847 12.1326 58.4847 14.9834C58.4847 17.9337 56.3191 19.7901 53.7925 19.7901C51.2331 19.7901 49.1988 17.8343 49.1988 14.9834C49.1988 12.0331 51.2331 10.2099 53.7925 10.2099ZM58.7472 0V9.04972C57.7956 7.35912 55.1378 6.43094 53.4316 6.43094C48.7066 6.43094 45.1956 9.34807 45.1956 14.9834C45.1956 20.3536 48.7722 23.5359 53.53 23.5359C55.4987 23.5359 57.5003 22.8729 58.7472 20.9171L59.0097 23.1713H62.7503V0H58.7472Z" fill="#213F7D"/>
<path d="M79.0307 8.51934C77.1604 6.86188 75.2573 6.36464 72.7307 6.36464C69.7776 6.36464 65.9057 7.69061 65.9057 11.4696C65.9057 15.1823 69.5479 16.3094 72.5994 16.5414C74.8963 16.674 75.8151 17.1381 75.8151 18.2652C75.8151 19.4586 74.4041 20.2541 72.8948 20.221C71.0901 20.1878 68.4651 19.2265 67.3166 17.9337L65.3479 20.8177C67.7104 23.3039 70.2698 23.7348 72.8291 23.7348C77.4557 23.7348 79.7854 21.2486 79.7854 18.3646C79.7854 14.0221 75.9135 13.326 72.8619 13.1271C70.7948 12.9945 69.8432 12.3978 69.8432 11.337C69.8432 10.3094 70.8932 9.71271 72.7963 9.71271C74.3385 9.71271 75.651 10.0773 76.7994 11.1713L79.0307 8.51934Z" fill="#213F7D"/>
<path d="M90.1611 19.6575C87.4376 19.6575 85.5673 17.5691 85.5673 15.0166C85.5673 12.4641 87.2736 10.3757 90.1611 10.3757C93.0486 10.3757 94.7548 12.4641 94.7548 15.0166C94.7548 17.5691 92.8845 19.6575 90.1611 19.6575ZM99.1189 30V6.82873H95.3782L95.1157 9.08287C93.8689 7.25967 91.7032 6.46409 89.8657 6.46409C84.8782 6.46409 81.5642 10.2099 81.5642 15.0166C81.5642 19.7901 84.5501 23.5691 89.7345 23.5691C91.4407 23.5691 93.9673 23.0387 95.1157 21.2486V30H99.1189Z" fill="#213F7D"/>
<path d="M102.635 6.82873V23.1713H106.638V14.5525C106.638 11.5359 108.574 10.4088 110.674 10.4088C111.987 10.4088 112.741 10.7735 113.562 11.4696L115.366 7.9558C114.48 7.06077 112.873 6.39779 111.199 6.39779C109.559 6.39779 107.885 6.69613 106.638 8.71823L106.343 6.82873H102.635Z" fill="#213F7D"/>
</svg>
